<svg xmlns="http://www.w3.org/2000/svg" width="32" height="32" viewBox="0 0 32 32" fill="none">
  <defs>
    <linearGradient id="logo-grad" x1="0%" y1="100%" x2="100%" y2="0%">
      <stop offset="0%" stop-color="#4f46e5" />
      <stop offset="50%" stop-color="#7c3aed" />
      <stop offset="100%" stop-color="#ec4899" />
    </linearGradient>
  </defs>
  <!-- Gradient Background Container -->
  <rect width="32" height="32" rx="9" fill="url(#logo-grad)" />
  
  <!-- White Palette Graphic -->
  <path d="M16 6C10.477 6 6 10.477 6 16C6 21.523 10.477 26 16 26C17.381 26 18.5 24.881 18.5 23.5C18.5 22.862 18.258 22.28 17.863 21.846C17.481 21.425 17.25 20.867 17.25 20.25C17.25 19.007 18.257 18 19.5 18H21C23.761 18 26 15.761 26 13C26 9.134 21.523 6 16 6Z" stroke="white" stroke-width="2.2" stroke-linecap="round" stroke-linejoin="round" />
  <circle cx="11.5" cy="11.5" r="1.25" fill="white" />
  <circle cx="16" cy="10" r="1.25" fill="white" />
  <circle cx="20.5" cy="11.5" r="1.25" fill="white" />
  <circle cx="10.5" cy="16" r="1.25" fill="white" />
</svg>
